<svg id="Layer_1" data-name="Layer 1" xmlns="http://www.w3.org/2000/svg" viewBox="0 0 1007.02 593"><defs><style>.cls-1{fill:#c56e81;}.cls-2{fill:#fff;}.cls-3{fill:#eac8ce;}.cls-10,.cls-12,.cls-13,.cls-14,.cls-17,.cls-20,.cls-22,.cls-23,.cls-24,.cls-4,.cls-9{fill:none;}.cls-4{stroke:#d5b2ba;}.cls-12,.cls-13,.cls-17,.cls-20,.cls-23,.cls-4{stroke-miterlimit:10;}.cls-12,.cls-4{stroke-width:0.84px;}.cls-5{fill:#061418;}.cls-6{fill:#1c2e34;}.cls-7{fill:#c35f54;}.cls-8{fill:#0b181b;}.cls-10,.cls-24,.cls-9{stroke:#312220;}.cls-10,.cls-14,.cls-22,.cls-24,.cls-9{stroke-linecap:round;stroke-linejoin:round;}.cls-9{stroke-width:0.58px;}.cls-10{stroke-width:0.52px;}.cls-11{fill:#0086ff;}.cls-12{stroke:#55382c;}.cls-13{stroke:#55382e;stroke-width:1.15px;}.cls-14{stroke:#f1d5ce;stroke-width:0.98px;}.cls-15{fill:#f9b0a3;}.cls-16{fill:#ff9184;}.cls-17{stroke:#ff6c63;stroke-width:1.02px;}.cls-18{fill:#ffc1b2;}.cls-19{fill:#878787;}.cls-20{stroke:#4f4f4f;stroke-width:0.76px;}.cls-21{fill:#f1998a;}.cls-22{stroke:#0b181b;stroke-width:0.53px;}.cls-23{stroke:#fff;stroke-width:0.49px;}.cls-24{stroke-width:0.56px;}</style></defs><title>welcome</title><path class="cls-1" d="M862.22,505.07H756.9A11.1,11.1,0,0,1,745.79,494h0a11.11,11.11,0,0,1,11.11-11.11H862.22A11.11,11.11,0,0,1,873.33,494h0A11.1,11.1,0,0,1,862.22,505.07Z" transform="translate(-140.98 -65.16)"/><path class="cls-1" d="M934.69,505.07H810.4a12.87,12.87,0,0,1-12.17-16.57l59.35-204.6a12.72,12.72,0,0,1,12.17-9.26h124.3a12.88,12.88,0,0,1,12.17,16.57l-59.36,204.6A12.72,12.72,0,0,1,934.69,505.07Z" transform="translate(-140.98 -65.16)"/><path class="cls-2" d="M917.59,505.07H809.33a12.88,12.88,0,0,1-12.18-16.57l59.36-204.6a12.72,12.72,0,0,1,12.17-9.26H976.94a12.88,12.88,0,0,1,12.18,16.57l-59.36,204.6A12.72,12.72,0,0,1,917.59,505.07Z" transform="translate(-140.98 -65.16)"/><path class="cls-1" d="M934.66,505.07H803.1A11.1,11.1,0,0,1,792,494h0a11.11,11.11,0,0,1,11.1-11.11H934.66A11.12,11.12,0,0,1,945.77,494h0A11.11,11.11,0,0,1,934.66,505.07Z" transform="translate(-140.98 -65.16)"/><path class="cls-3" d="M777.35,264.94S748,305.3,727.2,353.06a17.4,17.4,0,0,0,1.37,16.45h0c7.24,11,26.12,8.46,33.4-1.77,0,0,55.58-76.95,53.22-80.06C814.62,286.93,777.35,264.94,777.35,264.94Z" transform="translate(-140.98 -65.16)"/><path class="cls-3" d="M742.93,339.06l-72.82-29.29-6.31,38.11,73.32,27.88a14.55,14.55,0,0,0,8.3.69,19,19,0,0,0,14.45-21.7h0A18.86,18.86,0,0,0,742.93,339.06Z" transform="translate(-140.98 -65.16)"/><path class="cls-3" d="M834.13,255.58l-50.41,6.48a9.57,9.57,0,0,0-8.3,10.44L808,413.8l108.19-.27L900.86,273a9.58,9.58,0,0,0-8.45-10.66Z" transform="translate(-140.98 -65.16)"/><path class="cls-4" d="M789.69,331.25c0-1.69-9-36.05-9-36.05" transform="translate(-140.98 -65.16)"/><path class="cls-5" d="M815,396.77H727.83v-9.84H815a4.92,4.92,0,0,1,4.92,4.92h0A4.92,4.92,0,0,1,815,396.77Z" transform="translate(-140.98 -65.16)"/><path class="cls-6" d="M739.31,396.77H614.12a14.82,14.82,0,0,1-14.28-10.85L577.31,305a11.23,11.23,0,0,1,10.82-14.24H703.89a9.78,9.78,0,0,1,9.46,7.29Z" transform="translate(-140.98 -65.16)"/><path class="cls-2" d="M664.14,348.29a10.94,10.94,0,1,1-10.94-10.94A10.94,10.94,0,0,1,664.14,348.29Z" transform="translate(-140.98 -65.16)"/><path class="cls-3" d="M857.81,289.55S885.29,344,916.3,387.8c3.48,4.92,11.69,7.36,17.7,7.1h0c13.58-.58,19.33-15.21,14.2-27.11,0,0-43.45-100.41-49.47-102.05C897.81,265.49,857.81,289.55,857.81,289.55Z" transform="translate(-140.98 -65.16)"/><polygon class="cls-7" points="685.44 310.26 709.07 308.44 708.33 332.08 687.88 332.07 685.44 310.26"/><path class="cls-7" d="M828.16,375.42S774,354.54,780,397.2h52Z" transform="translate(-140.98 -65.16)"/><path class="cls-3" d="M928.16,358.29l-84.92,2.56,1.65,38L933.12,397a19.52,19.52,0,0,0,15.56-26.51h0A19.51,19.51,0,0,0,928.16,358.29Z" transform="translate(-140.98 -65.16)"/><polyline class="cls-4" points="733.2 245.38 755.67 294.08 702.26 295.69 702.21 308.44"/><line class="cls-4" x1="755.67" y1="294.08" x2="767.53" y2="299.9"/><path class="cls-8" d="M799.32,198.86a10.94,10.94,0,0,1-8.91,12.58,10.81,10.81,0,0,1-12.23-9.26,10.93,10.93,0,0,1,8.91-12.58A10.81,10.81,0,0,1,799.32,198.86Z" transform="translate(-140.98 -65.16)"/><path class="cls-7" d="M814.36,228.29l2.51,29.57c.85,10.38,7.51,15.4,17.4,14.46h0c8.45-.81,17.38-5.69,16.23-14.81l-6.11-46.34Z" transform="translate(-140.98 -65.16)"/><path class="cls-7" d="M821.43,237.61h0c-16.88,1.47-32-11.09-33.68-25.29l-3.4-29.72c-2.13-17.79,9.79-34,26.94-36.73h0c17.56-2.75,37.1,9.24,39.86,27.37l2.37,23.19C855.67,217.31,841.51,234.46,821.43,237.61Z" transform="translate(-140.98 -65.16)"/><polyline class="cls-9" points="663.45 136.11 663.35 142.73 667.53 142.54"/><path class="cls-8" d="M821.41,183.34s-7,0-6.79,2.9c0,0,.17,2,6.24,1.86s7.59-.71,8-2.6S824.66,183.08,821.41,183.34Z" transform="translate(-140.98 -65.16)"/><path class="cls-8" d="M793,184.92s5.66-1.09,6.35,1.6c0,0,.43,1.83-4.53,2.67s-6.65.31-7.25-1.14C786.92,186.4,790.31,185.19,793,184.92Z" transform="translate(-140.98 -65.16)"/><path class="cls-9" d="M815.48,196.44s4.49-3.48,9,0" transform="translate(-140.98 -65.16)"/><path class="cls-9" d="M798.64,197.92s-3.16-3.29-7.58.69" transform="translate(-140.98 -65.16)"/><path class="cls-8" d="M834.09,158.5s-7.94,10.19,7.85,22.56c0,0-2.68,25.53-6.13,32,0,0-32-6.55-47,3.91,0,0,.51,22.31,26.82,23.37,35,1.42,38.66-34.14,38.66-34.14L847,189.06l11.94,1.62S883.19,154,845.36,154Z" transform="translate(-140.98 -65.16)"/><path class="cls-7" d="M866.4,193.66a11,11,0,0,1-8.91,12.58,11.05,11.05,0,1,1,8.91-12.58Z" transform="translate(-140.98 -65.16)"/><path class="cls-10" d="M852.61,198.5s-1.2-7.91,6.32-7.82" transform="translate(-140.98 -65.16)"/><path class="cls-8" d="M835.65,160.07s-29.23,1.79-46.9.37c0,0-17.43-6.52-10.2-17.1,5.72-8.37,19.55-1.54,19.55-1.54s-.23-8.62,5.84-11c7.28-2.81,28.54-5.09,46.66,23.76Z" transform="translate(-140.98 -65.16)"/><path class="cls-7" d="M816.56,257.84l-9.33,1.2s-4.17,15.6,17.49,17.17c22.58,1.63,31.48-6.72,35.84-17.87l-24.86-4.88Z" transform="translate(-140.98 -65.16)"/><rect class="cls-7" x="728.49" y="585.3" width="31.86" height="43.07" transform="translate(1350.42 1145.37) rotate(179.76)"/><path class="cls-11" d="M832.76,413.53,835,427.26a48.19,48.19,0,0,1-47.56,56H773.2V604.35l-59.12.8-3.3-148.41a42.25,42.25,0,0,1,42.15-43Z" transform="translate(-140.98 -65.16)"/><path class="cls-8" d="M760.69,622.18c-7.5,2-24.67,7.3-32.63-4.24L674.25,647.1l95-.63L765,625A3.47,3.47,0,0,0,760.69,622.18Z" transform="translate(-140.98 -65.16)"/><rect class="cls-2" x="674.28" y="646.78" width="94.99" height="8.23" transform="translate(1306.83 1231.88) rotate(179.62)"/><path class="cls-2" d="M728.62,630.68a1.42,1.42,0,0,1-.62-.5,31.91,31.91,0,0,0-7-7.18,1.5,1.5,0,0,1-.41-2.08,1.52,1.52,0,0,1,2.08-.42,33.87,33.87,0,0,1,7.78,7.92,1.5,1.5,0,0,1-.33,2.1A1.52,1.52,0,0,1,728.62,630.68Z" transform="translate(-140.98 -65.16)"/><path class="cls-2" d="M721.3,634.53a1.54,1.54,0,0,1-.62-.49,31.47,31.47,0,0,0-7-7.18,1.5,1.5,0,0,1,1.66-2.51,34.12,34.12,0,0,1,7.78,7.92,1.5,1.5,0,0,1-1.81,2.26Z" transform="translate(-140.98 -65.16)"/><path class="cls-2" d="M714,638.38a1.57,1.57,0,0,1-.63-.49,31.74,31.74,0,0,0-7-7.18A1.5,1.5,0,0,1,708,628.2a34,34,0,0,1,7.79,7.92,1.5,1.5,0,0,1-1.81,2.26Z" transform="translate(-140.98 -65.16)"/><rect class="cls-7" x="811.9" y="585.3" width="31.86" height="43.07" transform="translate(1517.25 1145.02) rotate(179.76)"/><path class="cls-8" d="M843.6,620.37c-7.5,2-24.47,8.55-32.43-3l-53.81,29.16,95-.63-4.43-22.68A3.46,3.46,0,0,0,843.6,620.37Z" transform="translate(-140.98 -65.16)"/><rect class="cls-2" x="757.39" y="646.23" width="94.99" height="8.23" transform="translate(1473.05 1230.22) rotate(179.62)"/><path class="cls-2" d="M811.73,630.12a1.54,1.54,0,0,1-.62-.49,31.94,31.94,0,0,0-7-7.19,1.5,1.5,0,0,1-.42-2.08,1.52,1.52,0,0,1,2.08-.42,34.12,34.12,0,0,1,7.78,7.92,1.5,1.5,0,0,1-1.81,2.26Z" transform="translate(-140.98 -65.16)"/><path class="cls-2" d="M804.42,634a1.5,1.5,0,0,1-.62-.5,31.64,31.64,0,0,0-7-7.18,1.51,1.51,0,0,1,1.67-2.51,34.35,34.35,0,0,1,7.78,7.92,1.5,1.5,0,0,1-.33,2.1A1.52,1.52,0,0,1,804.42,634Z" transform="translate(-140.98 -65.16)"/><path class="cls-2" d="M797.1,637.83a1.56,1.56,0,0,1-.62-.5,31.41,31.41,0,0,0-7-7.18,1.5,1.5,0,0,1,1.67-2.5,33.69,33.69,0,0,1,7.78,7.91,1.5,1.5,0,0,1-.33,2.1A1.52,1.52,0,0,1,797.1,637.83Z" transform="translate(-140.98 -65.16)"/><path class="cls-11" d="M916.18,413.53l2.24,13.73a48.2,48.2,0,0,1-47.57,56H856.61V604.35l-59.11.8-3.3-148.41a42.25,42.25,0,0,1,42.14-43Z" transform="translate(-140.98 -65.16)"/><path class="cls-12" d="M793.64,482.85v-28.3a41.81,41.81,0,0,1,41.6-42l10.53,0" transform="translate(-140.98 -65.16)"/><polyline class="cls-13" points="516.6 592.81 431.8 340.81 363.55 589.75"/><polyline class="cls-13" points="873.13 592.81 788.33 340.81 720.08 589.75"/><rect class="cls-2" x="307.69" y="331.65" width="602.58" height="17.07"/><rect class="cls-2" x="535.2" y="112.33" width="156.94" height="61.89" rx="2.09" transform="translate(1086.36 221.38) rotate(180)"/><line class="cls-14" x1="523.54" y1="70.88" x2="419.24" y2="70.88"/><line class="cls-14" x1="455.3" y1="87.33" x2="419.59" y2="87.33"/><polygon class="cls-2" points="529.11 100.82 529.11 128.81 493.44 100.82 529.11 100.82"/><polygon class="cls-15" points="283 148.31 304.89 234.85 347.71 308.91 332.94 321.38 272.25 245.38 248.01 175.34 283 148.31"/><path class="cls-15" d="M488.69,374.07l38,11.23c3.62,1.05,7,2.5,8.13,6.07a7.52,7.52,0,0,1-.57,5.34l0,.09a7.79,7.79,0,0,1-8.55,4.32L494,397l4.76,8.22a4.16,4.16,0,0,1-.09,4.81h0a4.16,4.16,0,0,1-5.66,1l-11.16-7.4a14.18,14.18,0,0,1-6-8.65l-1.91-8.41,4.51-12.47Z" transform="translate(-140.98 -65.16)"/><polygon class="cls-16" points="286.83 132.82 301.51 186.01 255.09 207.19 269.67 163.85 286.83 132.82"/><path class="cls-16" d="M371.38,172s-44.6-16.44-70.47,30.63-46.6,149.26-46.6,149.26l115.33,9.65,45.21-131.81c5.68-12.17,19.86-27.92,9.8-36.82-4.54-4-10.82-7.73-19.51-10.43Z" transform="translate(-140.98 -65.16)"/><line class="cls-17" x1="260.04" y1="204.93" x2="273.14" y2="166.73"/><path class="cls-18" d="M391,290.51,344.18,191.3l-36.47,53.6,51.23,70.2a23.38,23.38,0,0,0,19.95,9.58l97.68-4.4,12.67-17Z" transform="translate(-140.98 -65.16)"/><path class="cls-18" d="M489.24,303.28l42.35,2.47,17.29,5.8a3.78,3.78,0,0,1,2.43,4.62h0a3.77,3.77,0,0,1-4.61,2.61l-17-4.55-12-1,5.16,4.66a17.11,17.11,0,0,1,5.07,8.35l.72,2.75a7.37,7.37,0,0,1-5.13,9l-8.35,2.34a7.36,7.36,0,0,1-8.8-4.29l-2.61-6.38-8.09-4.07a24.55,24.55,0,0,1-21.7-5.28c-8.87-7.46,1.05-9.67,2-10.08S489.24,303.28,489.24,303.28Z" transform="translate(-140.98 -65.16)"/><polygon class="cls-16" points="207.89 118.83 248.01 187.56 185.62 231.84 153.73 163.67 207.89 118.83"/><polyline class="cls-17" points="168.2 197.46 187.13 230.76 198.16 222.8"/><line class="cls-17" x1="235.57" y1="196.39" x2="209.97" y2="148.31"/><polygon class="cls-18" points="295.83 562.19 291.94 485.76 257.5 491.72 267.08 570.68 296.67 565.03 295.83 562.19"/><path d="M403.76,620.7s24.6,10.22,36.18-6.31l59.75,31.21-103.58.23Z" transform="translate(-140.98 -65.16)"/><polygon class="cls-2" points="358.65 589.4 255.06 589.63 255.13 580.67 358.72 580.44 358.65 589.4"/><path class="cls-2" d="M439.31,628.26a1.7,1.7,0,0,0,.69-.54,35.59,35.59,0,0,1,7.79-7.89,1.61,1.61,0,0,0,.46-2.27,1.69,1.69,0,0,0-2.31-.43,37.83,37.83,0,0,0-8.64,8.69,1.6,1.6,0,0,0,.36,2.28A1.69,1.69,0,0,0,439.31,628.26Z" transform="translate(-140.98 -65.16)"/><path class="cls-2" d="M447.43,632.39a1.67,1.67,0,0,0,.69-.55,35,35,0,0,1,7.8-7.88,1.64,1.64,0,0,0,.46-2.28,1.69,1.69,0,0,0-2.31-.43,37.75,37.75,0,0,0-8.65,8.69,1.6,1.6,0,0,0,.37,2.28A1.7,1.7,0,0,0,447.43,632.39Z" transform="translate(-140.98 -65.16)"/><path class="cls-2" d="M455.56,636.51a1.81,1.81,0,0,0,.69-.55,35.11,35.11,0,0,1,7.79-7.88,1.62,1.62,0,0,0,.47-2.27,1.69,1.69,0,0,0-2.31-.44,38,38,0,0,0-8.65,8.69,1.6,1.6,0,0,0,.36,2.28A1.72,1.72,0,0,0,455.56,636.51Z" transform="translate(-140.98 -65.16)"/><path class="cls-19" d="M369.64,361.58,434,457.34c6.78,11.87,6.31,15.94,7.21,29.59l6.7,115.52-56.68,3.82L377,491.59,306.79,378.48l-3.51-22.68Z" transform="translate(-140.98 -65.16)"/><polygon class="cls-18" points="140.5 567.36 160.74 488.34 126.3 494.31 110.96 567.36 139.1 570.68 140.5 567.36"/><path d="M250.6,620.7s24.61,10.22,36.18-6.31l59.76,31.21L243,645.83Z" transform="translate(-140.98 -65.16)"/><polygon class="cls-2" points="205.49 589.4 101.9 589.63 101.97 580.67 205.56 580.44 205.49 589.4"/><path class="cls-2" d="M286.15,628.26a1.57,1.57,0,0,0,.69-.54,35.5,35.5,0,0,1,7.8-7.89,1.62,1.62,0,0,0,.46-2.27,1.69,1.69,0,0,0-2.31-.43,37.75,37.75,0,0,0-8.65,8.69,1.61,1.61,0,0,0,.37,2.28A1.67,1.67,0,0,0,286.15,628.26Z" transform="translate(-140.98 -65.16)"/><path class="cls-2" d="M294.28,632.39a1.81,1.81,0,0,0,.69-.55,35.11,35.11,0,0,1,7.79-7.88,1.62,1.62,0,0,0,.46-2.28,1.69,1.69,0,0,0-2.31-.43,38.05,38.05,0,0,0-8.64,8.69,1.6,1.6,0,0,0,.36,2.28A1.72,1.72,0,0,0,294.28,632.39Z" transform="translate(-140.98 -65.16)"/><path class="cls-2" d="M302.4,636.51a1.67,1.67,0,0,0,.69-.55,35,35,0,0,1,7.8-7.88,1.63,1.63,0,0,0,.46-2.27,1.69,1.69,0,0,0-2.31-.44,38,38,0,0,0-8.65,8.69,1.61,1.61,0,0,0,.37,2.28A1.7,1.7,0,0,0,302.4,636.51Z" transform="translate(-140.98 -65.16)"/><polyline class="cls-20" points="198.74 362.77 198.65 349.25 217.22 327.64"/><path class="cls-19" d="M257.54,352.2s-15.17,32.27,4,76.31c.73,1.69,1.47,3.21,2.21,4.64l7.8,66.88L244.81,608l59,.71,31.83-95a78.27,78.27,0,0,0,2.29-14.52l-.82-122.56L350.94,360Z" transform="translate(-140.98 -65.16)"/><path class="cls-8" d="M450.09,103s12.76,26.59-9.62,25.78Z" transform="translate(-140.98 -65.16)"/><path class="cls-21" d="M425.13,135.28a11.89,11.89,0,0,0,6.08,15.6,11.76,11.76,0,0,0,15.33-6.54,11.89,11.89,0,0,0-6.07-15.6A11.76,11.76,0,0,0,425.13,135.28Z" transform="translate(-140.98 -65.16)"/><path class="cls-18" d="M410.09,160l-9.28,27.12c-3.24,9.53-10.65,12.67-19.7,9.47h0c-7.72-2.74-14.95-9.41-11.74-17.69l16.6-42Z" transform="translate(-140.98 -65.16)"/><path class="cls-8" d="M404,178.07s-22.73-5.7-21.07-32.92c.52-8.57,28.19,12.11,28.19,12.11Z" transform="translate(-140.98 -65.16)"/><path class="cls-18" d="M399.25,165.13h0c15.47,5.34,32.57-2.89,37.49-15.79l10.15-27c6.17-16.18-1.19-34.2-16.63-40.74h0c-15.8-6.7-36.93,0-43.76,16.3L378.84,119C371.93,138.08,381.17,157.47,399.25,165.13Z" transform="translate(-140.98 -65.16)"/><polyline class="cls-22" points="282.63 70.32 281.27 76.14 277.39 74.98"/><path class="cls-8" d="M415.65,107.62s6.53,1.63,5.68,4.32c0,0-.62,1.8-6.28.27s-7-2.44-6.88-4.31S412.67,106.62,415.65,107.62Z" transform="translate(-140.98 -65.16)"/><path class="cls-8" d="M441.19,117.68s-5.05-2.35-6.33,0c0,0-.83,1.61,3.63,3.56s6.15,1.86,7.05.63S443.67,118.57,441.19,117.68Z" transform="translate(-140.98 -65.16)"/><path class="cls-8" d="M430.7,132.25a2.82,2.82,0,1,0,3.65-1.72A2.86,2.86,0,0,0,430.7,132.25Z" transform="translate(-140.98 -65.16)"/><path class="cls-8" d="M407.63,123.49a2.82,2.82,0,1,0,3.66-1.72A2.87,2.87,0,0,0,407.63,123.49Z" transform="translate(-140.98 -65.16)"/><path class="cls-23" d="M426.74,130.7a13.25,13.25,0,1,0,17.14-7.57A13.25,13.25,0,0,0,426.74,130.7Z" transform="translate(-140.98 -65.16)"/><path class="cls-23" d="M405.3,112.36a13.25,13.25,0,1,0,17.48,6.77A13.26,13.26,0,0,0,405.3,112.36Z" transform="translate(-140.98 -65.16)"/><line class="cls-23" x1="257.32" y1="54.54" x2="245.66" y2="50.03"/><line class="cls-23" x1="281.05" y1="66.49" x2="284.77" y2="67.93"/><path class="cls-22" d="M407.44,143.07s2.82,5.67,13.55,5.67" transform="translate(-140.98 -65.16)"/><path class="cls-8" d="M378.88,78.89c6.41-12,17.3-7,17.3-7v0c7.25-6.42,21.55-9.26,34.92-3.9,18.13,7.27,31,23.43,30.44,34.19s-14.67,5.23-14.67,5.23-21.26-6-37.45-13.32c-1.67,7.4-6.35,18.46-19.14,14.53L379.8,129.14S370.56,94.49,378.88,78.89Z" transform="translate(-140.98 -65.16)"/><path class="cls-18" d="M364.79,113.61a11.76,11.76,0,0,0,6,15.45A11.64,11.64,0,0,0,386,122.59a11.76,11.76,0,0,0-6-15.45A11.64,11.64,0,0,0,364.79,113.61Z" transform="translate(-140.98 -65.16)"/><path class="cls-24" d="M377.91,122.26s3.32-7.94-4.55-9.81" transform="translate(-140.98 -65.16)"/><path class="cls-18" d="M362.27,169.76l27.91,6.51L409.4,184s-5.44,18.92-22.76,15.78C354.71,194,362.27,169.76,362.27,169.76Z" transform="translate(-140.98 -65.16)"/><line class="cls-13" x1="1007.02" y1="591.58" y2="591.58"/></svg>